<svg xmlns="http://www.w3.org/2000/svg" viewBox="0 0 90 40">
  <title>logo</title>
  <g>
    <path d="M17.31,3.06l.14,1c-4.47,9.09,1.23,8.35,1.23,8.35l.72-.13.11.22c10.59-1.2,16.38,4.31,16.38,4.31C36.66,3.77,17.31,3.06,17.31,3.06Z" fill="#f8b829" fill-rule="evenodd"/>
    <path d="M10.66,33.77c-.45,3,2,4.74,2.39,3.78,1.08-1.41,1.46-1,2-3.12a4.07,4.07,0,0,1,.68-.71q.82-.85,1.58-1.74a27,27,0,0,0,3.8-5.57,10.23,10.23,0,0,0,1.18-6.68,12.14,12.14,0,0,0-1.73-3.24,3.65,3.65,0,0,1-.3-1.64,4.66,4.66,0,0,0-.73-2.37,2.44,2.44,0,0,1-.64-1.89c.13-.76.13-1.51.24-2.27a9.22,9.22,0,0,0-.76-4.14s-.7-1.24-1.32-.93a6.75,6.75,0,0,0-7.36.09S-4.63,12.49,8.28,30.07c-.39,2.28,1,4.63,2.08,6.19" fill="#005d86"/>
    <path d="M17.25,13.7,15.31,4.86s-1.14-3.4-4.14.89l-.5-.66C7.91,9,4.17,13.69,5,18.77H5A6.5,6.5,0,0,0,7.92,23.4a6.13,6.13,0,0,0,7.78-.65C17.26,21.45,18.53,18.81,17.25,13.7Z" fill="#fff"/>
    <path d="M19.51,12.53s9.26-1.44,16.38,4.31c0,0-6.7-8.79-17.38-7.16C18.52,9.68,17.75,11.84,19.51,12.53Z" fill="#f19320" fill-rule="evenodd"/>
    <path d="M35.89,16.84a10.23,10.23,0,0,0-1.63-6.44c-.1-.13-.87,1.55-.88,1.7a3.5,3.5,0,0,0,.49,2c.51.94,1.75,1.71,2,2.72" fill="#e95253"/>
    <path d="M1,29.54a7,7,0,0,0,4.1.27c1.91.26,2.91.86,5.19,1.12,2.79,0,5.56-.3,8.33-.56.9-.08,2.9-.19,3.66.52.44.41.31,1.52.32,2.1a17.17,17.17,0,0,0-5.16-1.1c-2,0-4.07.09-6.1.07a23.09,23.09,0,0,1-4.13-.36c-1.27-.24-2.52-.57-3.79-.83C2.5,30.57,1.38,30.41,1,29.54Z" fill="#9b5f48"/>
    <path d="M18.83,31.34c0,.32-.28,1-.54,1h0c-.26,0-.54-.67-.54-1V30.21c0-.32.2-.64.46-.64h0a.71.71,0,0,1,.6.64Z" fill="#969595"/>
    <path d="M17.75,31.5c0,.25-.2.77-.41.77h0c-.21,0-.41-.52-.41-.77v-.89c0-.25.15-.5.36-.5h0a.52.52,0,0,1,.44.5Z" fill="#838383"/>
    <path d="M7.83,31.34c0,.32.28,1,.54,1h0c.26,0,.54-.67.54-1V30.21c0-.32-.2-.64-.46-.64h0a.71.71,0,0,0-.6.64Z" fill="#969595"/>
    <path d="M8.91,31.5c0,.25.2.77.41.77h0c.21,0,.41-.52.41-.77v-.89c0-.25-.15-.5-.36-.5h0a.52.52,0,0,0-.44.5Z" fill="#838383"/>
    <path d="M19.29,9.48h0c.24-.57.68-2.34-.54-5.39-.22-.47-.77-1.56-1.94-1-.17.26,2.11,1.69,1.64,6.73,0,0-.59,2.11,1.06,2.7a3.85,3.85,0,0,1-.37-1.66A3.81,3.81,0,0,1,19.29,9.48Zm-.11.2h0S19.18,9.68,19.19,9.68Z" fill="#003b55"/>
    <path d="M17.31,7.62c.44,2.36-.74,3.7-3.08,3.73-1.8,0-4.42-.38-4.67-2.58-.21-1.91,1-4.5,2.94-5.08,2.69-.82,4.39,1.61,4.82,3.93Z" fill="#f8b829"/>
    <path d="M15.88,7.45A1.71,1.71,0,0,1,14,9.68c-1.14,0-2.73-.27-2.83-1.66A3,3,0,0,1,13,5c1.61-.45,2.61,1,2.85,2.41Z" fill="#005d86"/>
    <path d="M15,7.15a1.4,1.4,0,0,1-2.81,0A1.4,1.4,0,0,1,15,7.15Z" fill="#151410" fill-rule="evenodd"/>
    <path d="M13.79,6.26c0,.25-.22,0-.22,0S13.79,6,13.79,6.26Z" fill="#fff" fill-rule="evenodd"/>
    <path d="M13,6.25c-.14,0-.17.15-.19.31a.27.27,0,0,0-.13.4s.68-.64.73-.6A.52.52,0,0,0,13,6.25Z" fill="#fff" fill-rule="evenodd"/>
    <g>
      <path d="M35.35,29.32a.55.55,0,0,1,.42.18l1.18,1.26c-1.79,2.28-5.22,2.79-7.84,1.82A7,7,0,0,1,24.76,26a7.24,7.24,0,0,1,3.94-7,7.36,7.36,0,0,1,8.06,1.23l-1,1.36c-.54.78-1.37-.08-1.93-.35a4.58,4.58,0,0,0-2.66-.36,4.19,4.19,0,0,0-3.34,4,5.28,5.28,0,0,0,1.78,4.87,4.39,4.39,0,0,0,5.26-.28A.77.77,0,0,1,35.35,29.32Z" fill="#fff"/>
      <path d="M41,18.11V32.85H38.25V18.11Z" fill="#fff"/>
      <path d="M46.06,22.66v10.2H43.34V22.66Z" fill="#fff"/>
      <path d="M46.39,19.7c0,2.13-3.38,2.14-3.38,0S46.39,17.56,46.39,19.7Z" fill="#fff"/>
      <path d="M55.79,24.93c-.43.58-.89.22-1.37,0a2.83,2.83,0,0,0-1.95-.31c-1.38.31-1.78,1.72-1.82,3s.23,2.74,1.49,3.25a2.57,2.57,0,0,0,2-.07c.49-.23,1.19-1.1,1.7-.43l.78,1A5.35,5.35,0,0,1,51,32.76a5,5,0,0,1-3.13-4.84,5.05,5.05,0,0,1,3-5.07A5.34,5.34,0,0,1,56.51,24Z" fill="#fff"/>
      <path d="M60.7,18.11v8.37h.45a.8.8,0,0,0,.7-.35l2.25-3a1.09,1.09,0,0,1,.92-.46h2.49L64.6,26.37a2.71,2.71,0,0,1-.8.73,2.69,2.69,0,0,1,.72.83l3.15,4.91H65.22a1,1,0,0,1-.92-.47L62,28.63a.73.73,0,0,0-.73-.38H60.7v4.6H58V18.11Z" fill="#fff"/>
      <path d="M71.49,18.11v8.37h.45a.8.8,0,0,0,.7-.35l2.25-3a1.09,1.09,0,0,1,.92-.46h2.49l-2.93,3.72a2.71,2.71,0,0,1-.8.73,2.69,2.69,0,0,1,.72.83l3.15,4.91H76a1,1,0,0,1-.92-.47l-2.29-3.75a.73.73,0,0,0-.73-.38h-.57v4.6H68.76V18.11Z" fill="#fff"/>
      <path d="M83.5,35.59a.88.88,0,0,1-.89.55h-2L82.51,32l-4.09-9.38h2.39a.78.78,0,0,1,.76.49L83.51,28q.21.58.36,1.16c.12-.39.26-.78.41-1.17l1.8-4.87a.79.79,0,0,1,.74-.49H89Z" fill="#fff"/>
    </g>
  </g>
</svg>